<svg version="1.1" id="Layer_1" xmlns="http://www.w3.org/2000/svg" xmlns:xlink="http://www.w3.org/1999/xlink" x="0px" y="0px"
	 width="100%" viewBox="0 0 81 81" enable-background="new 0 0 81 81" xml:space="preserve">
<path fill="#000000" opacity="1.000000" stroke="none" 
	d="
M22.000000,1.000000 
	C41.933990,1.000000 61.867981,1.000000 82.000000,1.000000 
	C82.000000,25.020531 82.000000,49.041607 81.616180,73.514610 
	C80.475952,71.689842 79.331375,69.462326 79.035561,67.127281 
	C78.130684,59.984470 75.249390,54.313824 69.848488,49.195110 
	C55.866062,35.943237 42.445740,22.097380 28.840269,8.449519 
	C26.462191,6.064031 24.275229,3.488018 22.000000,1.000000 
z"/>
<path fill="#000000" opacity="1.000000" stroke="none" 
	d="
M74.000000,82.000000 
	C49.747581,82.000000 25.495167,82.000000 1.000000,82.000000 
	C1.000000,62.646446 1.000000,43.291882 1.348585,23.409519 
	C3.075073,24.053156 4.540584,25.136703 5.817411,26.409527 
	C19.564400,40.113384 33.488922,53.648598 46.910477,67.665062 
	C52.713787,73.725601 58.709389,78.423988 67.387596,79.147209 
	C69.655228,79.336189 71.799225,81.008781 74.000000,82.000000 
z"/>
<path fill="#522B59" opacity="1.000000" stroke="none" 
	d="
M74.494736,82.000000 
	C71.799225,81.008781 69.655228,79.336189 67.387596,79.147209 
	C58.709389,78.423988 52.713787,73.725601 46.910477,67.665062 
	C33.488922,53.648598 19.564400,40.113384 5.817411,26.409527 
	C4.540584,25.136703 3.075073,24.053156 1.348585,22.940863 
	C1.000000,19.969406 1.000000,16.938814 1.348723,13.528975 
	C5.798297,9.099819 9.899149,5.049910 14.000000,1.000000 
	C16.370558,1.000000 18.741116,1.000000 21.555836,1.000000 
	C24.275229,3.488018 26.462191,6.064031 28.840269,8.449519 
	C42.445740,22.097380 55.866062,35.943237 69.848488,49.195110 
	C75.249390,54.313824 78.130684,59.984470 79.035561,67.127281 
	C79.331375,69.462326 80.475952,71.689842 81.616180,73.983269 
	C82.000000,76.582458 82.000000,79.164917 82.000000,82.000000 
	C79.666077,82.000000 77.327774,82.000000 74.494736,82.000000 
M27.684265,25.136988 
	C40.377369,37.814781 53.070469,50.492577 66.428787,63.834785 
	C68.435043,61.583496 70.054146,59.766651 71.303169,58.365086 
	C57.922325,44.952095 44.810329,31.808598 30.939886,17.904835 
	C29.763111,20.047880 28.496441,22.354639 27.684265,25.136988 
M20.459057,29.074331 
	C19.203766,30.498173 17.126854,31.626871 19.451832,33.931244 
	C32.101257,46.468575 44.694748,59.062340 57.480148,71.808815 
	C59.547478,69.912643 61.426121,68.189545 63.610168,66.186317 
	C50.456272,53.016800 37.916183,40.390263 25.197428,27.946337 
	C24.583099,27.345282 22.396509,28.351212 20.459057,29.074331 
M17.597773,5.140374 
	C14.571109,7.653841 11.367156,9.985118 8.556291,12.720350 
	C3.394679,17.743074 3.642191,19.238001 9.520450,23.182890 
	C14.126682,18.605705 18.708715,14.052566 23.765547,9.027621 
	C21.927074,7.713713 20.125229,6.425982 17.597773,5.140374 
M66.997673,68.464066 
	C65.131187,69.557793 63.264698,70.651520 60.929268,72.020042 
	C66.516533,76.219200 69.368011,75.169395 72.360153,72.253990 
	C75.496422,69.198151 75.862434,66.329735 72.234901,61.821903 
	C70.513939,64.059166 69.004654,66.021233 66.997673,68.464066 
M15.148873,28.102434 
	C19.712774,23.610447 24.276676,19.118462 28.840578,14.626474 
	C27.371906,13.507592 26.547512,13.255135 26.245539,13.545668 
	C22.083284,17.550249 17.952412,21.590761 13.958800,25.761269 
	C13.625290,26.109552 14.335529,27.457315 15.148873,28.102434 
z"/>
<path fill="#000000" opacity="1.000000" stroke="none" 
	d="
M13.523338,1.000000 
	C9.899149,5.049910 5.798297,9.099819 1.348723,13.074864 
	C1.000000,9.074012 1.000000,5.148024 1.000000,1.000000 
	C5.013897,1.000000 9.030287,1.000000 13.523338,1.000000 
z"/>
<path fill="#000000" opacity="1.000000" stroke="none" 
	d="
M27.457016,24.899193 
	C28.496441,22.354639 29.763111,20.047880 30.939886,17.904835 
	C44.810329,31.808598 57.922325,44.952095 71.303169,58.365086 
	C70.054146,59.766651 68.435043,61.583496 66.428787,63.834785 
	C53.070469,50.492577 40.377369,37.814781 27.457016,24.899193 
z"/>
<path fill="#000000" opacity="1.000000" stroke="none" 
	d="
M20.700569,28.841570 
	C22.396509,28.351212 24.583099,27.345282 25.197428,27.946337 
	C37.916183,40.390263 50.456272,53.016800 63.610168,66.186317 
	C61.426121,68.189545 59.547478,69.912643 57.480148,71.808815 
	C44.694748,59.062340 32.101257,46.468575 19.451832,33.931244 
	C17.126854,31.626871 19.203766,30.498173 20.700569,28.841570 
z"/>
<path fill="#000000" opacity="1.000000" stroke="none" 
	d="
M17.960579,5.139312 
	C20.125229,6.425982 21.927074,7.713713 23.765547,9.027621 
	C18.708715,14.052566 14.126682,18.605705 9.520450,23.182890 
	C3.642191,19.238001 3.394679,17.743074 8.556291,12.720350 
	C11.367156,9.985118 14.571109,7.653841 17.960579,5.139312 
z"/>
<path fill="#000000" opacity="1.000000" stroke="none" 
	d="
M67.246521,68.223679 
	C69.004654,66.021233 70.513939,64.059166 72.234901,61.821903 
	C75.862434,66.329735 75.496422,69.198151 72.360153,72.253990 
	C69.368011,75.169395 66.516533,76.219200 60.929268,72.020042 
	C63.264698,70.651520 65.131187,69.557793 67.246521,68.223679 
z"/>
<path fill="#000000" opacity="1.000000" stroke="none" 
	d="
M14.854856,28.221577 
	C14.335529,27.457315 13.625290,26.109552 13.958800,25.761269 
	C17.952412,21.590761 22.083284,17.550249 26.245539,13.545668 
	C26.547512,13.255135 27.371906,13.507592 28.840578,14.626474 
	C24.276676,19.118462 19.712774,23.610447 14.854856,28.221577 
z"/>
</svg>